<svg viewBox="0 0 1024 1024" xmlns="http://www.w3.org/2000/svg">
  <defs>
    <linearGradient id="bg" x1="0" y1="0" x2="0" y2="1">
      <stop offset="0%" stop-color="#FDFBF7"/><stop offset="100%" stop-color="#F1E7D8"/>
    </linearGradient>
    <linearGradient id="af" x1="0" y1="0" x2="0" y2="1">
      <stop offset="0%" stop-color="#C4714B"/><stop offset="100%" stop-color="#A34527"/>
    </linearGradient>
  </defs>
  <rect x="100" y="100" width="824" height="824" rx="185" fill="url(#bg)"/>
  <rect x="101.5" y="101.5" width="821" height="821" rx="183.5" fill="none" stroke="#E3D9C8" stroke-width="3"/>
  <ellipse cx="512" cy="515" rx="354.1" ry="132.0" transform="rotate(-20 512 515)" fill="none"
           stroke="#B5623F" stroke-opacity="0.5" stroke-width="14.5"/>
  <path d="M522-229L180.500-229L180.500-291.500L522-291.500L522-229M421.500-682L687.500-56L764.500-27.500L764.500 0L456.500 0L456.500-27.500L541-54.500L323.500-580L348-580L144-54.500L224-27.500L224 0L-7 0L-7-27.500L71-54.500L326-682" transform="translate(268.89,733.88) scale(0.64186)" fill="url(#af)"/>
  <circle cx="802.0" cy="495.9" r="25.8" fill="#9A4E30"/>
  <path d="M856.3 502.1 A54.7 54.7 0 0 1 809.1 550.2" stroke="#9A4E30" stroke-opacity="0.8" stroke-width="14.5" stroke-linecap="round" fill="none"/>
  <path d="M885.1 505.4 A83.7 83.7 0 0 1 812.9 578.9" stroke="#9A4E30" stroke-opacity="0.55" stroke-width="14.5" stroke-linecap="round" fill="none"/>
</svg>